<?xml version="1.0" standalone="no"?><!DOCTYPE svg PUBLIC "-//W3C//DTD SVG 20010904//EN" "http://www.w3.org/TR/2001/REC-SVG-20010904/DTD/svg10.dtd">
<svg version="1.0" xmlns="http://www.w3.org/2000/svg"
 width="132.000000pt" height="88.000000pt" viewBox="0 0 132.000000 88.000000"
 preserveAspectRatio="xMidYMid meet">
<g transform="translate(0.000000,88.000000) scale(0.100000,-0.100000)"
fill="#f90108" stroke="none">
<path d="M397 864 c-51 -28 -60 -86 -21 -133 52 -63 154 -28 154 53 0 69 -74
114 -133 80z"/>
<path d="M438 622 l-87 -67 -1 -277 0 -278 90 0 90 0 0 345 c0 190 -1 345 -2
345 -2 0 -42 -31 -90 -68z"/>
<path d="M590 685 c0 -3 53 -78 119 -167 l118 -161 -85 -116 c-47 -64 -105
-142 -129 -173 -24 -31 -43 -59 -43 -62 0 -3 51 -6 113 -6 l112 0 79 111 c43
61 81 107 85 103 5 -5 40 -55 80 -111 l72 -103 104 0 c88 0 105 2 105 15 0 12
-141 214 -232 332 -7 8 27 60 104 165 63 84 117 159 122 166 5 9 -18 12 -107
12 l-114 0 -71 -101 -70 -100 -69 100 -68 100 -112 1 c-62 0 -113 -2 -113 -5z"/>
<path d="M128 427 l-116 -81 29 -27 29 -27 0 -146 0 -146 90 0 90 0 0 255 c0
140 -1 255 -2 254 -2 -1 -55 -37 -120 -82z"/>
</g>
</svg>
