<svg version="1.1" id="Layer_1" xmlns="http://www.w3.org/2000/svg" xmlns:xlink="http://www.w3.org/1999/xlink" x="0px" y="0px"
	 width="392.6px" height="180.4px" viewBox="612 -309.9 392.6 180.4" enable-background="new 612 -309.9 392.6 180.4"
	 xml:space="preserve">
<path fill="#231300" d="M656.7-166.9h-26.4c-10.1,0-18.3-8.2-18.3-18.3c0-10.1,8.2-18.3,18.3-18.3h26.4v6.6h-26.4
	c-6.4,0-11.6,5.2-11.6,11.6c0,6.4,5.2,11.6,11.6,11.6h19.8v-8.3H631v-6.7h25.7V-166.9z"/>
<path fill="#231300" d="M724.6-166.9h-26.5c-10.1,0-18.3-8.2-18.3-18.3c0-10.1,8.2-18.3,18.3-18.3h26.4v6.6h-26.4
	c-6.4,0-11.6,5.2-11.6,11.6c0,6.4,5.2,11.6,11.6,11.6h19.8v-8.3h-19v-6.7h25.7C724.6-188.7,724.6-166.9,724.6-166.9z"/>
<rect x="665.4" y="-203.5" fill="#231300" width="6.7" height="36.5"/>
<polygon fill="#231300" points="775.8,-184.6 748.9,-184.6 747.3,-177.9 777.5,-177.9 "/>
<path fill="#231300" d="M739.1-166.9l6.5-26.1c0.6-2.3,2.6-3.8,4.9-3.8h12.9c2.3,0,4.3,1.6,4.9,3.8l6.5,26.1h6.9l-6.9-27.7
	c-1.3-5.2-6-8.9-11.4-8.9h-12.9c-5.4,0-10,3.6-11.4,8.9l-6.9,27.7H739.1z"/>
<path fill="#231300" d="M803.1-243.9h-47.6c-18.2,0-33-14.8-33-33s14.8-33,33-33h47.6v12.7h-47.6c-11.2,0-20.4,9.1-20.4,20.4
	c0,11.2,9.1,20.4,20.4,20.4h35v-14h-34v-12.9h46.7v39.4C803.2-243.9,803.1-243.9,803.1-243.9z"/>
<path fill="#00CCFF" d="M813.9-243.9h47.6c18.2,0,33-14.8,33-33s-14.8-33-33-33h-47.6v12.7h47.6c11.2,0,20.4,9.1,20.4,20.4
	c0,11.2-9.1,20.4-20.4,20.4h-35v-14h34v-12.9h-46.7v39.4C813.8-243.9,813.9-243.9,813.9-243.9z"/>
<polygon fill="#00CCFF" points="801.5,-167.2 801.5,-197.3 787.7,-197.3 787.7,-203.7 821.8,-203.7 821.8,-197.3 807.9,-197.3 
	807.9,-167.2 "/>
<path fill="#00CCFF" d="M859.9-167.2l-9.2-10.2H837v-5.6h15.2c2.3,0,4.1-0.6,5.2-1.9c1.2-1.3,1.8-3.1,1.8-5.5s-0.6-4.1-1.8-5.3
	c-1.2-1.2-2.9-1.7-5.2-1.7h-19.9v30.2H826v-36.5h26.2c2.1,0,3.9,0.3,5.6,0.9c1.6,0.6,3,1.5,4.2,2.7c1.1,1.2,2,2.6,2.6,4.2
	s0.9,3.5,0.9,5.5c0,3-0.7,5.6-2,7.7c-1.3,2.1-3.2,3.5-5.6,4.4l11,11.1C868.9-167.2,859.9-167.2,859.9-167.2z"/>
<path fill="#00CCFF" d="M910.4-167.2l-5.5-9.2h-17.3l3-5.2h11.2l-8.1-13.7l-16.6,28h-7.3l21-35c0.4-0.6,0.8-1.1,1.3-1.5
	c0.5-0.4,1.1-0.6,1.8-0.6c0.7,0,1.3,0.2,1.8,0.6c0.5,0.4,0.9,0.9,1.3,1.5l21.1,35h-7.7L910.4-167.2L910.4-167.2z"/>
<path fill="#00CCFF" d="M927.9-193.9v26.7h-6.1v-33.2c0-1.2,0.3-2.1,0.9-2.8c0.6-0.7,1.4-1,2.4-1c0.5,0,0.9,0.1,1.4,0.3
	c0.4,0.2,0.9,0.5,1.4,1l25.8,25.6V-204h6.1v33.5c0,1.2-0.3,2.1-0.9,2.8s-1.3,1-2.3,1s-2-0.5-2.9-1.4L927.9-193.9z"/>
<path fill="#00CCFF" d="M965.9-167.2v-6.4h27.4c1.7,0,3-0.4,3.9-1.3s1.4-2,1.4-3.5c0-1.6-0.5-2.8-1.4-3.5c-0.9-0.8-2.2-1.2-3.9-1.2
	h-16.8c-1.7,0-3.3-0.3-4.6-0.8c-1.4-0.5-2.6-1.2-3.5-2.2c-1-0.9-1.7-2-2.2-3.3s-0.8-2.7-0.8-4.2s0.2-2.8,0.7-4.1s1.2-2.3,2.2-3.2
	s2.1-1.6,3.5-2.1s3-0.8,4.8-0.8h26.2v6.4h-26.2c-1.5,0-2.6,0.4-3.4,1.2c-0.8,0.8-1.2,1.9-1.2,3.3s0.4,2.5,1.2,3.3
	c0.8,0.8,1.9,1.2,3.3,1.2h16.7c3.7,0,6.5,0.9,8.5,2.6c1.9,1.7,2.9,4.4,2.9,7.9c0,1.5-0.2,3-0.7,4.3c-0.5,1.3-1.2,2.4-2.1,3.4
	s-2.1,1.7-3.5,2.2s-3.1,0.8-5,0.8C993.3-167.2,965.9-167.2,965.9-167.2z"/>
<polygon fill="#231300" points="623.3,-147.2 618.1,-147.2 618.1,-134.6 617.4,-134.6 617.4,-147.2 612.5,-147.2 612.5,-147.9 
	623.3,-147.9 "/>
<path fill="#231300" d="M642.7-134.4c-1.1,0-2.1-0.3-2.9-0.9c-0.9-0.6-1.6-1.4-2.1-2.4s-0.8-2.1-0.8-3.3v-0.6c0-1.2,0.2-2.3,0.7-3.4
	c0.5-1,1.2-1.8,2-2.4c0.9-0.6,1.8-0.9,2.8-0.9c1.5,0,2.7,0.5,3.6,1.6c0.9,1.1,1.4,2.4,1.4,4.2v0.7h-9.9v0.7c0,1.1,0.2,2.1,0.7,3
	c0.5,0.9,1.1,1.6,1.9,2.2c0.8,0.5,1.7,0.8,2.6,0.8c0.9,0,1.6-0.1,2.3-0.4s1.2-0.8,1.7-1.4l0.5,0.3
	C646.1-135.1,644.6-134.4,642.7-134.4 M642.4-147.5c-1.3,0-2.4,0.5-3.3,1.4c-0.9,1-1.4,2.2-1.6,3.7h9.2v-0.2c0-0.9-0.2-1.7-0.6-2.5
	s-0.9-1.4-1.6-1.8C644-147.3,643.2-147.5,642.4-147.5"/>
<path fill="#231300" d="M672.1-147.9v13.3h-0.7v-12.6H665l-0.3,6.2c-0.1,2.4-0.4,4-0.9,5c-0.5,0.9-1.3,1.4-2.4,1.4H661v-0.7h0.6
	c0.8,0,1.4-0.5,1.8-1.3c0.4-0.8,0.6-2.2,0.8-4.2l0.3-7.1H672.1L672.1-147.9z"/>
<path fill="#231300" d="M693-134.4c-1.1,0-2.1-0.3-2.9-0.9c-0.9-0.6-1.6-1.4-2.1-2.4s-0.8-2.1-0.8-3.3v-0.6c0-1.2,0.2-2.3,0.7-3.4
	c0.5-1,1.2-1.8,2-2.4c0.9-0.6,1.8-0.9,2.8-0.9c1.5,0,2.7,0.5,3.6,1.6c0.9,1.1,1.4,2.4,1.4,4.2v0.7h-9.9v0.7c0,1.1,0.2,2.1,0.7,3
	c0.5,0.9,1.1,1.6,1.9,2.2c0.8,0.5,1.7,0.8,2.6,0.8c0.9,0,1.6-0.1,2.3-0.4c0.7-0.3,1.2-0.8,1.7-1.4l0.5,0.3
	C696.4-135.1,695-134.4,693-134.4 M692.8-147.5c-1.3,0-2.4,0.5-3.3,1.4c-0.9,1-1.4,2.2-1.6,3.7h9.2v-0.2c0-0.9-0.2-1.7-0.6-2.5
	s-0.9-1.4-1.6-1.8C694.4-147.3,693.6-147.5,692.8-147.5"/>
<polygon fill="#231300" points="716,-141.1 713.6,-141.1 713.6,-134.6 712.9,-134.6 712.9,-147.9 713.6,-147.9 713.6,-141.8 
	716.1,-141.8 721.4,-147.9 722.3,-147.9 716.7,-141.4 723.1,-134.6 722.1,-134.6 "/>
<path fill="#231300" d="M736.3-141.5c0-1.3,0.2-2.4,0.7-3.4s1.2-1.8,2.1-2.4c0.9-0.6,1.9-0.8,3-0.8c1.1,0,2.1,0.3,3,0.8
	c0.9,0.5,1.6,1.3,2.1,2.3s0.7,2.1,0.8,3.4v0.6c0,1.3-0.2,2.4-0.7,3.4s-1.2,1.8-2.1,2.4c-0.9,0.6-1.9,0.8-3,0.8c-1.1,0-2.1-0.3-3-0.8
	c-0.9-0.6-1.6-1.3-2.1-2.3s-0.7-2.1-0.7-3.4v-0.6H736.3z M737-141c0,1.1,0.2,2.1,0.7,3c0.4,0.9,1,1.6,1.8,2.1s1.7,0.8,2.7,0.8
	c1.5,0,2.7-0.6,3.7-1.7s1.4-2.6,1.4-4.4v-0.4c0-1.1-0.2-2.1-0.7-3c-0.4-0.9-1.1-1.6-1.8-2.2c-0.8-0.5-1.7-0.8-2.7-0.8
	c-1.5,0-2.7,0.6-3.7,1.7c-1,1.2-1.4,2.6-1.4,4.3V-141z"/>
<polygon fill="#231300" points="770.2,-135.6 776.2,-147.9 777,-147.9 777,-134.6 776.3,-134.6 776.3,-146.6 770.5,-134.6 
	769.9,-134.6 763.9,-146.9 763.9,-134.6 763.3,-134.6 763.3,-147.9 764.2,-147.9 "/>
<path fill="#231300" d="M816.2-141.5c0-1.3,0.2-2.4,0.7-3.4s1.2-1.8,2.1-2.4c0.9-0.6,1.9-0.8,3-0.8c1.1,0,2.1,0.3,3,0.8
	c0.9,0.5,1.6,1.3,2.1,2.3s0.7,2.1,0.8,3.4v0.6c0,1.3-0.2,2.4-0.7,3.4s-1.2,1.8-2.1,2.4c-0.9,0.6-1.9,0.8-3,0.8c-1.1,0-2.1-0.3-3-0.8
	c-0.9-0.6-1.6-1.3-2.1-2.3s-0.7-2.1-0.7-3.4v-0.6H816.2z M816.9-141c0,1.1,0.2,2.1,0.7,3c0.4,0.9,1,1.6,1.8,2.1
	c0.8,0.5,1.7,0.8,2.7,0.8c1.5,0,2.7-0.6,3.7-1.7s1.4-2.6,1.4-4.4v-0.4c0-1.1-0.2-2.1-0.7-3c-0.4-0.9-1.1-1.6-1.8-2.2
	c-0.8-0.5-1.7-0.8-2.7-0.8c-1.5,0-2.7,0.6-3.7,1.7c-1,1.2-1.4,2.6-1.4,4.3V-141z"/>
<polygon fill="#231300" points="852.6,-134.6 851.9,-134.6 851.9,-147.2 843.7,-147.2 843.7,-134.6 843,-134.6 843,-147.9 
	852.6,-147.9 "/>
<path fill="#231300" d="M873.5-134.4c-1.1,0-2.1-0.3-2.9-0.9c-0.9-0.6-1.6-1.4-2.1-2.4s-0.8-2.1-0.8-3.3v-0.6c0-1.2,0.2-2.3,0.7-3.4
	c0.5-1,1.2-1.8,2-2.4c0.9-0.6,1.8-0.9,2.8-0.9c1.5,0,2.7,0.5,3.6,1.6c0.9,1.1,1.4,2.4,1.4,4.2v0.7h-9.9v0.7c0,1.1,0.2,2.1,0.7,3
	c0.5,0.9,1.1,1.6,1.9,2.2c0.8,0.5,1.7,0.8,2.6,0.8c0.9,0,1.6-0.1,2.3-0.4c0.7-0.3,1.2-0.8,1.7-1.4l0.5,0.3
	C876.9-135.1,875.5-134.4,873.5-134.4 M873.3-147.5c-1.3,0-2.4,0.5-3.3,1.4c-0.9,1-1.4,2.2-1.6,3.7h9.2v-0.2c0-0.9-0.2-1.7-0.6-2.5
	s-0.9-1.4-1.6-1.8C874.9-147.3,874.1-147.5,873.3-147.5"/>
<path fill="#231300" d="M903.5-141.1c0,2.1-0.4,3.7-1.3,4.9c-0.9,1.2-2.1,1.8-3.6,1.8c-1,0-1.9-0.2-2.7-0.6c-0.8-0.4-1.4-1-1.8-1.7
	v7.2h-0.7v-18.3h0.7v2.4c0.5-0.8,1.1-1.5,1.8-1.9c0.8-0.4,1.7-0.7,2.6-0.7c1.6,0,2.8,0.6,3.7,1.8c0.9,1.2,1.3,2.9,1.3,5V-141.1z
	 M902.9-141.4c0-1.9-0.4-3.4-1.1-4.5s-1.8-1.6-3.2-1.6c-1.1,0-2.1,0.3-2.8,0.9c-0.8,0.6-1.3,1.4-1.7,2.5v6.2
	c0.3,0.9,0.9,1.6,1.7,2.1c0.8,0.5,1.7,0.8,2.8,0.8c1.4,0,2.4-0.5,3.2-1.6C902.5-137.7,902.9-139.3,902.9-141.4"/>
<path fill="#231300" d="M927.7-134.6c-0.2-0.6-0.2-1.4-0.2-2.4c-0.5,0.8-1.2,1.5-2.1,2c-0.9,0.5-1.9,0.7-3.1,0.7s-2.2-0.3-3-1
	c-0.7-0.7-1.1-1.5-1.1-2.6c0-1.2,0.5-2.2,1.6-2.9c1.1-0.7,2.6-1.1,4.4-1.1h3.3v-2.1c0-1.1-0.3-2-1-2.6c-0.7-0.6-1.7-0.9-3-0.9
	c-1.2,0-2.2,0.3-3,0.9c-0.8,0.6-1.2,1.4-1.2,2.3h-0.7c0-1.1,0.5-2,1.4-2.7c0.9-0.8,2.1-1.1,3.5-1.1s2.6,0.4,3.4,1.1
	c0.8,0.7,1.3,1.7,1.3,3v6.3c0,1.5,0.1,2.4,0.3,3v0.1L927.7-134.6L927.7-134.6z M922.2-135.1c1.2,0,2.3-0.3,3.2-0.8
	c0.9-0.6,1.6-1.3,2-2.3v-3.1h-3.1c-1.9,0-3.3,0.4-4.3,1.1c-0.8,0.6-1.2,1.4-1.2,2.3c0,0.8,0.3,1.5,1,2.1
	C920.4-135.3,921.2-135.1,922.2-135.1"/>
<polygon fill="#231300" points="953.6,-147.2 948.4,-147.2 948.4,-134.6 947.7,-134.6 947.7,-147.2 942.8,-147.2 942.8,-147.9 
	953.6,-147.9 "/>
<path fill="#231300" d="M967.1-141.5c0-1.3,0.2-2.4,0.7-3.4s1.2-1.8,2.1-2.4c0.9-0.6,1.9-0.8,3-0.8s2.1,0.3,3,0.8s1.6,1.3,2.1,2.3
	s0.7,2.1,0.8,3.4v0.6c0,1.3-0.2,2.4-0.7,3.4s-1.2,1.8-2.1,2.4c-0.9,0.6-1.9,0.8-3,0.8s-2.1-0.3-3-0.8c-0.9-0.6-1.6-1.3-2.1-2.3
	s-0.7-2.1-0.7-3.4v-0.6H967.1z M967.8-141c0,1.1,0.2,2.1,0.7,3c0.4,0.9,1,1.6,1.8,2.1s1.7,0.8,2.7,0.8c1.5,0,2.7-0.6,3.7-1.7
	s1.4-2.6,1.4-4.4v-0.4c0-1.1-0.2-2.1-0.7-3c-0.4-0.9-1.1-1.6-1.8-2.2c-0.8-0.5-1.7-0.8-2.7-0.8c-1.5,0-2.7,0.6-3.7,1.7
	c-1,1.2-1.4,2.6-1.4,4.3V-141z"/>
<path fill="#231300" d="M1004.1-141.1c0,2.1-0.4,3.7-1.3,4.9c-0.9,1.2-2.1,1.8-3.6,1.8c-1,0-1.9-0.2-2.7-0.6s-1.4-1-1.8-1.7v7.2H994
	v-18.3h0.7v2.4c0.5-0.8,1.1-1.5,1.8-1.9c0.8-0.4,1.7-0.7,2.6-0.7c1.6,0,2.8,0.6,3.7,1.8c0.9,1.2,1.3,2.9,1.3,5V-141.1z
	 M1003.4-141.4c0-1.9-0.4-3.4-1.1-4.5s-1.8-1.6-3.2-1.6c-1.1,0-2.1,0.3-2.8,0.9c-0.8,0.6-1.3,1.4-1.7,2.5v6.2
	c0.3,0.9,0.9,1.6,1.7,2.1s1.7,0.8,2.8,0.8c1.4,0,2.4-0.5,3.2-1.6C1003-137.7,1003.4-139.3,1003.4-141.4"/>
</svg>
